<?xml version="1.0" standalone="no"?>
<!DOCTYPE svg PUBLIC "-//W3C//DTD SVG 20010904//EN"
 "http://www.w3.org/TR/2001/REC-SVG-20010904/DTD/svg10.dtd">
<svg version="1.0" xmlns="http://www.w3.org/2000/svg"
 width="700.000000pt" height="700.000000pt" viewBox="0 0 700.000000 700.000000"
 preserveAspectRatio="xMidYMid meet">
<metadata>
Created by potrace 1.14, written by Peter Selinger 2001-2017
</metadata>
<g transform="translate(0.000000,700.000000) scale(0.100000,-0.100000)"
fill="#000000" stroke="none">
<path d="M3030 6421 l0 -378 -47 -7 c-27 -4 -57 -10 -68 -12 -11 -3 -31 -7
-45 -10 -169 -30 -482 -139 -670 -233 -169 -84 -457 -265 -468 -293 -2 -4 -10
-8 -17 -8 -7 0 -15 -3 -17 -8 -1 -4 -23 -22 -47 -41 -135 -106 -416 -389 -455
-460 -5 -9 -13 -18 -16 -21 -22 -15 -175 -239 -233 -339 -37 -66 -145 -281
-140 -281 2 0 -2 -12 -11 -27 -20 -40 -46 -100 -46 -110 0 -4 -6 -20 -14 -34
-23 -45 -112 -353 -121 -423 -3 -15 -6 -35 -9 -45 -3 -9 -8 -36 -11 -61 -3
-25 -8 -57 -11 -72 -20 -120 -23 -189 -20 -453 2 -165 6 -309 9 -320 7 -28 21
-136 20 -157 0 -10 2 -18 6 -18 3 0 7 -13 7 -28 2 -49 84 -357 114 -427 4 -11
24 -60 43 -110 47 -120 105 -246 125 -267 8 -10 12 -18 9 -18 -10 0 188 -327
213 -350 3 -3 27 -34 55 -70 54 -71 61 -79 132 -159 78 -89 311 -315 333 -323
4 -2 25 -17 46 -35 53 -44 152 -116 192 -139 17 -10 32 -22 32 -26 0 -4 4 -8
10 -8 5 0 38 -18 72 -40 35 -22 68 -40 75 -40 6 0 13 -4 15 -8 2 -5 44 -29 93
-52 50 -24 92 -46 95 -49 3 -3 12 -7 20 -9 8 -2 39 -14 68 -28 29 -13 55 -24
58 -24 3 0 20 -6 37 -14 59 -26 59 -26 212 -72 121 -36 136 -40 189 -50 16 -2
32 -6 35 -8 3 -2 22 -7 41 -10 19 -3 44 -7 55 -10 23 -4 111 -18 140 -22 190
-25 634 -25 775 1 8 1 35 6 60 10 83 13 95 15 160 29 148 32 212 50 340 93 74
25 144 50 155 56 11 6 22 12 25 12 13 3 71 29 130 58 36 17 67 31 70 32 3 0
26 12 52 28 26 15 51 27 57 27 6 0 11 4 11 9 0 5 10 13 22 17 13 4 34 15 48
24 14 10 52 35 85 56 66 41 235 165 275 200 14 13 50 44 80 71 87 76 208 201
290 298 41 50 83 99 93 109 9 11 17 23 17 26 0 4 9 18 20 31 33 40 35 43 59
82 13 21 30 44 38 52 8 8 12 15 8 15 -3 0 5 15 18 33 13 17 27 39 31 47 3 8
16 31 28 50 79 130 239 500 263 610 1 8 8 35 15 60 7 25 14 52 16 60 2 8 10
42 18 75 8 33 17 76 20 95 3 19 8 44 10 56 2 12 7 45 11 74 4 29 9 62 12 74
10 37 12 609 3 671 -5 33 -11 84 -15 114 -4 30 -9 63 -11 75 -3 12 -7 35 -10
51 -22 132 -89 361 -156 533 -38 97 -182 391 -197 402 -4 3 -20 28 -36 55 -27
48 -102 160 -124 187 -6 7 -38 48 -71 91 -34 43 -69 87 -78 99 -63 80 -322
324 -417 393 -22 17 -42 33 -45 36 -7 9 -180 129 -186 129 -3 0 -17 8 -32 19
-43 29 -76 48 -86 49 -5 0 -12 5 -15 10 -6 11 -234 124 -311 155 -25 10 -54
22 -65 27 -11 5 -38 14 -60 21 -22 7 -45 17 -51 21 -5 4 -35 14 -65 22 -30 8
-85 24 -124 35 -38 11 -73 17 -77 15 -4 -3 -8 -1 -8 4 0 5 -6 9 -12 10 -25 3
-74 11 -98 16 -14 4 -38 9 -55 11 -68 12 -65 7 -65 120 0 103 -5 135 -20 135
-5 0 -59 30 -122 67 -62 37 -115 68 -118 68 -3 0 -16 8 -30 17 -27 17 -113 67
-257 149 -21 12 -51 30 -68 40 -16 11 -43 26 -60 34 -16 9 -43 24 -60 35 -16
11 -37 23 -45 27 -8 4 -40 22 -70 40 -30 18 -61 33 -67 33 -10 0 -13 -82 -13
-379z m978 -1307 c9 -4 24 -8 32 -9 85 -11 520 -201 520 -226 0 -5 6 -9 13 -9
12 0 112 -67 177 -120 11 -8 33 -26 51 -40 46 -35 227 -217 269 -269 19 -24
41 -49 48 -56 6 -8 12 -16 12 -20 0 -4 7 -13 15 -22 47 -46 229 -365 239 -416
1 -7 10 -30 20 -52 10 -22 20 -51 22 -64 3 -14 8 -29 12 -35 3 -6 7 -15 9 -21
1 -5 11 -41 22 -79 11 -38 18 -72 15 -75 -3 -3 -347 -6 -765 -6 l-759 0 0 767
c0 827 -4 770 48 752z m-977 -991 c0 -549 2 -1009 5 -1023 37 -227 199 -391
409 -416 17 -2 479 -5 1027 -6 548 0 1002 -4 1008 -8 7 -4 5 -24 -7 -61 -9
-30 -17 -59 -19 -65 -8 -41 -64 -186 -106 -274 -58 -121 -156 -290 -169 -290
-5 0 -9 -7 -9 -15 0 -8 -4 -15 -10 -15 -5 0 -10 -5 -10 -11 0 -6 -12 -26 -27
-44 -16 -18 -46 -54 -68 -81 -76 -90 -214 -223 -295 -284 -18 -14 -38 -30 -44
-35 -6 -6 -29 -22 -51 -35 -22 -13 -42 -27 -45 -30 -22 -28 -318 -181 -341
-176 -3 0 -12 -4 -20 -10 -8 -6 -39 -19 -69 -29 -30 -10 -59 -20 -65 -24 -5
-3 -14 -6 -20 -7 -5 -1 -55 -13 -110 -28 -114 -29 -161 -37 -300 -51 -149 -16
-420 -7 -530 18 -11 2 -42 8 -69 12 -38 5 -193 46 -261 69 -5 2 -14 5 -20 6
-5 1 -34 13 -62 26 -29 12 -53 20 -53 16 0 -4 -4 -2 -8 3 -4 6 -32 21 -62 35
-30 13 -68 33 -85 45 -16 11 -31 18 -33 16 -7 -7 -202 122 -277 183 -27 23
-61 50 -75 61 -114 92 -327 345 -401 476 -19 33 -38 66 -44 72 -9 12 -24 41
-70 137 -26 56 -66 157 -70 180 -2 12 -9 28 -16 36 -6 8 -9 14 -6 14 3 0 -4
28 -15 63 -11 34 -22 71 -24 82 -1 11 -5 31 -9 45 -3 14 -8 39 -10 55 -3 17
-10 55 -15 85 -26 151 -29 410 -6 560 3 14 8 45 11 70 4 25 9 54 12 65 2 11 6
31 9 45 3 14 7 33 10 42 3 9 6 25 8 35 2 11 16 54 31 98 15 43 28 83 30 89 12
49 121 275 170 351 19 31 35 59 35 64 0 5 4 11 8 13 5 2 23 26 42 53 19 28 39
55 45 61 5 7 26 31 45 55 61 78 223 233 318 307 114 87 336 225 382 237 9 3
64 26 95 41 43 20 267 93 288 93 16 1 17 -53 18 -996z"/>
</g>
</svg>
